<svg width="24" height="21" viewBox="0 0 24 21" fill="none" xmlns="http://www.w3.org/2000/svg">
<path d="M21.3624 2.48927C20.8172 1.94377 20.1698 1.51104 19.4573 1.21581C18.7448 0.920571 17.981 0.768613 17.2098 0.768613C16.4385 0.768613 15.6748 0.920571 14.9623 1.21581C14.2497 1.51104 13.6024 1.94377 13.0571 2.48927L11.9256 3.62084L10.794 2.48927C9.69264 1.38792 8.19889 0.769184 6.64134 0.769184C5.0838 0.769184 3.59005 1.38792 2.4887 2.48927C1.38735 3.59062 0.768613 5.08437 0.768613 6.64191C0.768613 8.19946 1.38735 9.69321 2.4887 10.7946L3.62026 11.9261L11.9256 20.2314L20.2308 11.9261L21.3624 10.7946C21.9079 10.2493 22.3406 9.60194 22.6359 8.88942C22.9311 8.17689 23.0831 7.41318 23.0831 6.64191C23.0831 5.87064 22.9311 5.10693 22.6359 4.39441C22.3406 3.68188 21.9079 3.03451 21.3624 2.48927V2.48927Z" stroke="#9A9FAE" stroke-width="1.5" stroke-linecap="round" stroke-linejoin="round"/>
</svg>
