<svg width="24" height="24" viewBox="0 0 24 24" fill="none" xmlns="http://www.w3.org/2000/svg">
<path d="M12 7.5C14.481 7.5 16.5 9.519 16.5 12C16.5 14.481 14.481 16.5 12 16.5C9.519 16.5 7.5 14.481 7.5 12C7.5 9.519 9.519 7.5 12 7.5ZM12 15C13.6545 15 15 13.6545 15 12C15 10.3455 13.6545 9 12 9C10.3455 9 9 10.3455 9 12C9 13.6545 10.3455 15 12 15Z" fill="#4E0E28"/>
<path d="M0.75 11.25H3.0375C3.4005 6.885 6.885 3.4005 11.25 3.0375V0.75C11.25 0.336 11.586 0 12 0C12.414 0 12.75 0.336 12.75 0.75V3.0375C17.115 3.4005 20.5995 6.8865 20.9625 11.25H23.25C23.664 11.25 24 11.586 24 12C24 12.414 23.664 12.75 23.25 12.75H20.9625C20.5995 17.115 17.115 20.5995 12.75 20.9625V23.25C12.75 23.664 12.414 24 12 24C11.586 24 11.25 23.664 11.25 23.25V20.9625C6.885 20.5995 3.4005 17.115 3.0375 12.75H0.75C0.336 12.75 0 12.4155 0 12C0 11.5875 0.336 11.25 0.75 11.25ZM12 19.5C16.1355 19.5 19.5 16.1355 19.5 12C19.5 7.8645 16.1355 4.5 12 4.5C7.8645 4.5 4.5 7.8645 4.5 12C4.5 16.1355 7.8645 19.5 12 19.5Z" fill="#4E0E28"/>
</svg>
