<svg width="25" height="22" viewBox="0 0 25 22" fill="none" xmlns="http://www.w3.org/2000/svg">
<path d="M23.6374 17.5562H1.3626C0.979769 17.5562 0.669401 17.8666 0.669401 18.2494C0.669401 19.9084 2.01425 21.2533 3.67327 21.2533H21.3268C22.9857 21.2533 24.3306 19.9084 24.3306 18.2494C24.3306 17.8666 24.0203 17.5562 23.6374 17.5562Z" stroke="#4E0E28" stroke-width="1.3"/>
<path d="M14.3482 2.88658V2.51743C14.3482 1.49653 13.5205 0.668898 12.4996 0.668898C11.4787 0.668898 10.6511 1.49653 10.6511 2.51743V2.88658C11.2576 2.79531 11.875 2.7485 12.4996 2.7485C13.1243 2.7485 13.7417 2.79531 14.3482 2.88658Z" stroke="#4E0E28" stroke-width="1.3"/>
<path d="M20.1794 8.24961C18.1282 6.19839 15.401 5.06875 12.5002 5.06875C9.59931 5.06875 6.87212 6.19839 4.8209 8.24961C2.93396 10.1365 1.82766 12.5957 1.66245 15.2357H23.3378C23.1726 12.5957 22.0664 10.1365 20.1794 8.24961Z" stroke="#4E0E28" stroke-width="1.3"/>
</svg>
