<svg width="26" height="26" viewBox="0 0 26 26" fill="none" xmlns="http://www.w3.org/2000/svg">
<path d="M22.5704 5.06557C22.0216 4.51199 21.3691 4.07197 20.6502 3.77064C19.9312 3.46931 19.16 3.31258 18.3805 3.3094C17.601 3.30622 16.8285 3.45665 16.1071 3.75211C15.3858 4.04756 14.7297 4.48225 14.1764 5.03133L13.028 6.17033L11.889 5.022C10.7804 3.90434 9.27327 3.27283 7.69907 3.26641C6.12487 3.25999 4.6126 3.87918 3.49494 4.98776C2.37727 6.09635 1.74577 7.60352 1.73935 9.17771C1.73293 10.7519 2.35212 12.2642 3.4607 13.3818L4.5997 14.5302L12.9595 22.9585L21.3879 14.5986L22.5362 13.4596C23.0898 12.9108 23.5298 12.2583 23.8311 11.5394C24.1325 10.8205 24.2892 10.0492 24.2924 9.2697C24.2955 8.49019 24.1451 7.71768 23.8497 6.99632C23.5542 6.27496 23.1195 5.61889 22.5704 5.06557V5.06557Z" stroke="#9A9FAE" stroke-width="1.5" stroke-linecap="round" stroke-linejoin="round"/>
</svg>
