<svg width="25" height="25" viewBox="0 0 25 25" fill="none" xmlns="http://www.w3.org/2000/svg">
<path d="M21.7084 4.80208C21.1763 4.26979 20.5446 3.84754 19.8494 3.55946C19.1541 3.27137 18.4089 3.12309 17.6563 3.12309C16.9037 3.12309 16.1585 3.27137 15.4632 3.55946C14.7679 3.84754 14.1362 4.26979 13.6042 4.80208L12.5 5.90624L11.3959 4.80208C10.3212 3.7274 8.86362 3.12365 7.34379 3.12365C5.82397 3.12365 4.36639 3.7274 3.29171 4.80208C2.21703 5.87676 1.61328 7.33433 1.61328 8.85416C1.61328 10.374 2.21703 11.8316 3.29171 12.9062L4.39588 14.0104L12.5 22.1146L20.6042 14.0104L21.7084 12.9062C22.2407 12.3742 22.6629 11.7425 22.951 11.0472C23.2391 10.352 23.3874 9.60675 23.3874 8.85416C23.3874 8.10157 23.2391 7.35635 22.951 6.66108C22.6629 5.96581 22.2407 5.33412 21.7084 4.80208V4.80208Z" stroke="#4E0E28" stroke-width="1.5" stroke-linecap="round" stroke-linejoin="round"/>
</svg>
