<svg width="21" height="21" viewBox="0 0 21 21" fill="none" xmlns="http://www.w3.org/2000/svg">
<g clip-path="url(#clip0_2040_12150)">
<path d="M16.2832 12.3047H15.4629V11.2021C16.5778 10.4229 17.3086 9.13024 17.3086 7.66992V5.74219H20.3848C20.7245 5.74219 21 5.46673 21 5.12695C21 4.78718 20.7245 4.51172 20.3848 4.51172H17.714C17.6062 2.00566 15.5341 0 13.002 0C10.4011 0 8.28516 2.11596 8.28516 4.7168V5.12695C8.28516 5.3947 8.45652 5.62189 8.69531 5.70642V7.66992C8.69531 9.13024 9.42609 10.4229 10.541 11.2021V12.3047H9.7207C8.72538 12.3047 7.74921 12.624 6.9471 13.207H1.8457C1.61265 13.207 1.39962 13.3387 1.29544 13.5471L0.0649687 16.0081L0.0652969 16.0086C0.0238711 16.0913 0 16.1844 0 16.2832V20.3848C0 20.7245 0.275461 21 0.615234 21H8.90039H20.3848C20.7245 21 21 20.7245 21 20.3848V17.0215C21 14.4206 18.884 12.3047 16.2832 12.3047ZM13.002 1.23047C14.8554 1.23047 16.3758 2.68447 16.4823 4.51172H9.52161C9.62813 2.68447 11.1485 1.23047 13.002 1.23047ZM9.92578 7.66992V5.74219H16.0781V7.66992C16.0781 9.36608 14.6982 10.7461 13.002 10.7461C11.3058 10.7461 9.92578 9.36608 9.92578 7.66992ZM13.002 11.9765C13.4294 11.9765 13.8424 11.9136 14.2324 11.7971V13.125C14.2324 13.8035 13.6804 14.3555 13.002 14.3555C12.3235 14.3555 11.7715 13.8035 11.7715 13.125V11.7971C12.1615 11.9136 12.5745 11.9765 13.002 11.9765ZM2.22596 14.4375H7.28971L7.90494 15.668H1.61072L2.22596 14.4375ZM1.23047 16.8984H8.28516V19.7695H1.23047V16.8984ZM19.7695 19.7695H9.51562V16.2832C9.51562 16.1844 9.49175 16.0913 9.45033 16.0086L9.45066 16.0081L8.35316 13.8131C8.78038 13.6303 9.24185 13.5352 9.7207 13.5352H10.5758C10.7718 14.6975 11.7848 15.5859 13.002 15.5859C14.2191 15.5859 15.2321 14.6975 15.4281 13.5352H16.2832C18.2056 13.5352 19.7695 15.0991 19.7695 17.0215V19.7695Z" fill="#9A9FAE"/>
<path d="M17.6367 16.6113H15.9961C15.6563 16.6113 15.3809 16.8868 15.3809 17.2266C15.3809 17.5663 15.6563 17.8418 15.9961 17.8418H17.6367C17.9765 17.8418 18.252 17.5663 18.252 17.2266C18.252 16.8868 17.9765 16.6113 17.6367 16.6113Z" fill="#9A9FAE"/>
</g>
<defs>
<clipPath id="clip0_2040_12150">
<rect width="21" height="21" fill="white"/>
</clipPath>
</defs>
</svg>
