<svg width="29" height="29" viewBox="0 0 29 29" fill="none" xmlns="http://www.w3.org/2000/svg">
<path d="M14.4972 5.60594C16.5743 5.57398 18.5831 6.34783 20.102 7.76509L24.1931 3.7646C21.5684 1.30512 18.0939 -0.0435201 14.4972 0.00107156C11.8098 0.000450596 9.17526 0.747416 6.88814 2.15843C4.60102 3.56945 2.75151 5.58889 1.54644 7.9909L6.23413 11.6304C6.80731 9.88752 7.91313 8.36856 9.39563 7.2877C10.8781 6.20683 12.6625 5.6186 14.4972 5.60594Z" fill="#EA4335"/>
<path d="M28.4135 14.82C28.4305 13.8234 28.3276 12.8285 28.1068 11.8566H14.4968V17.237H22.4866C22.3351 18.1803 21.9943 19.0832 21.4848 19.8915C20.9753 20.6997 20.3075 21.3965 19.5218 21.94L24.0966 25.4833C25.5223 24.1068 26.6435 22.4466 27.3878 20.6098C28.1321 18.7731 28.4829 16.8007 28.4177 14.82H28.4135Z" fill="#4285F4"/>
<path d="M6.25072 17.3649C5.93377 16.442 5.77037 15.4734 5.76704 14.4977C5.77282 13.5235 5.93036 12.5561 6.234 11.6304L1.54631 7.99094C0.529593 10.0095 0 12.2382 0 14.4984C0 16.7585 0.529593 18.9872 1.54631 21.0058L6.25072 17.3649Z" fill="#FBBC05"/>
<path d="M14.4973 28.9944C18.0284 29.0942 21.4637 27.8378 24.097 25.4831L19.5223 21.9399C18.039 22.9343 16.2823 23.441 14.4973 23.3895C12.6642 23.3786 10.8811 22.7908 9.4009 21.7094C7.92072 20.6281 6.81862 19.1081 6.25095 17.3651L1.56326 21.0059C2.76508 23.4069 4.61156 25.4259 6.89592 26.8367C9.18028 28.2476 11.8123 28.9947 14.4973 28.9944Z" fill="#34A853"/>
</svg>
