<svg width="23" height="23" viewBox="0 0 23 23" fill="none" xmlns="http://www.w3.org/2000/svg">
<path d="M22.2333 10.9037C22.2374 12.4778 21.8696 14.0305 21.1599 15.4355C20.3185 17.1192 19.0249 18.5353 17.4241 19.5253C15.8233 20.5152 13.9785 21.04 12.0963 21.0407C10.5222 21.0448 8.96943 20.6771 7.56442 19.9674L0.766665 22.2333L3.03258 15.4355C2.32291 14.0305 1.95515 12.4778 1.95925 10.9037C1.95998 9.02151 2.48472 7.17669 3.4747 5.57588C4.46468 3.97506 5.88079 2.68148 7.56442 1.84003C8.96943 1.13036 10.5222 0.762595 12.0963 0.766699H12.6926C15.1783 0.903837 17.5262 1.95304 19.2866 3.71342C21.0469 5.4738 22.0961 7.82164 22.2333 10.3074V10.9037Z" stroke="#9A9FAE" stroke-width="1.5" stroke-linecap="round" stroke-linejoin="round"/>
</svg>
