<svg width="20" height="22" viewBox="0 0 20 22" fill="none" xmlns="http://www.w3.org/2000/svg">
<path d="M11.7488 20.2125C11.5689 20.5227 11.3107 20.7802 10.9999 20.9591C10.6892 21.1381 10.3369 21.2323 9.97833 21.2323C9.61975 21.2323 9.26745 21.1381 8.95673 20.9591C8.646 20.7802 8.38775 20.5227 8.20782 20.2125M16.1188 6.90807C16.1188 5.27951 15.4719 3.71765 14.3203 2.56608C13.1688 1.41451 11.6069 0.767564 9.97833 0.767564C8.34977 0.767564 6.7879 1.41451 5.63633 2.56608C4.48476 3.71765 3.83782 5.27951 3.83782 6.90807C3.83782 14.072 0.767564 16.1188 0.767564 16.1188H19.1891C19.1891 16.1188 16.1188 14.072 16.1188 6.90807Z" stroke="#9A9FAE" stroke-width="1.5" stroke-linecap="round" stroke-linejoin="round"/>
</svg>
