<svg width="37" height="39" viewBox="0 0 37 39" fill="none" xmlns="http://www.w3.org/2000/svg">
<path fill-rule="evenodd" clip-rule="evenodd" d="M27.1144 0.983887C22.0294 0.983887 17.8924 4.99689 17.8924 9.92889V19.2209H3.6004C1.7294 19.2209 0.212402 20.6919 0.212402 22.5079V35.4229C0.212402 37.2389 1.7294 38.7109 3.6004 38.7109H20.1404C22.0114 38.7109 23.5294 37.2389 23.5294 35.4229V22.5079C23.5294 20.8589 22.2764 19.4979 20.6444 19.2609V9.92889C20.6444 6.46889 23.5474 3.65289 27.1144 3.65289C30.6814 3.65289 33.5844 6.46889 33.5844 9.92889V15.8399C33.5844 16.5769 34.1994 17.1749 34.9594 17.1749C35.7184 17.1749 36.3354 16.5769 36.3354 15.8399V9.92889C36.3354 4.99689 32.1984 0.983887 27.1144 0.983887Z" fill="white"/>
</svg>
