<svg width="26" height="26" viewBox="0 0 26 26" fill="none" xmlns="http://www.w3.org/2000/svg">
<g clip-path="url(#clip0_863_36099)">
<path d="M22.5704 5.06558C22.0216 4.51201 21.3691 4.07198 20.6502 3.77066C19.9312 3.46933 19.16 3.3126 18.3805 3.30942C17.601 3.30624 16.8285 3.45667 16.1071 3.75212C15.3858 4.04758 14.7297 4.48226 14.1764 5.03135L13.028 6.17035L11.889 5.02202C10.7804 3.90435 9.27327 3.27285 7.69907 3.26643C6.12487 3.26001 4.6126 3.87919 3.49494 4.98778C2.37727 6.09636 1.74577 7.60353 1.73935 9.17773C1.73293 10.7519 2.35212 12.2642 3.4607 13.3819L4.5997 14.5302L12.9595 22.9585L21.3879 14.5987L22.5362 13.4597C23.0898 12.9108 23.5298 12.2583 23.8311 11.5394C24.1325 10.8205 24.2892 10.0492 24.2924 9.26972C24.2955 8.4902 24.1451 7.7177 23.8497 6.99634C23.5542 6.27498 23.1195 5.6189 22.5704 5.06558V5.06558Z" stroke="#4E0E28" stroke-width="1.5" stroke-linecap="round" stroke-linejoin="round"/>
</g>
<defs>
<clipPath id="clip0_863_36099">
<rect width="25" height="25" fill="white" transform="translate(0.105702) scale(1.03578) rotate(0.233694)"/>
</clipPath>
</defs>
</svg>
