<svg width="17" height="17" viewBox="0 0 17 17" fill="none" xmlns="http://www.w3.org/2000/svg">
<path d="M17 13.3571C17 13.9122 16.5501 14.3621 15.9951 14.3621H1.00489C0.449902 14.3621 0 13.9122 0 13.3571V3.64311C0 3.08809 0.449902 2.63818 1.00489 2.63818H15.9951C16.5501 2.63818 17 3.08812 17 3.64311V13.3571Z" fill="white"/>
<path d="M3.77314 8.56768L3.37397 6.65282C3.30574 6.38876 3.10718 6.3102 2.85909 6.2998H1.029L1.0127 6.3873C2.43807 6.73284 3.38121 7.56644 3.77314 8.56768Z" fill="#F79F1A"/>
<path d="M8.01374 6.33862H6.83128L6.09277 10.6725H7.27328L8.01374 6.33862Z" fill="#059BBF"/>
<path d="M4.49395 10.6679L6.35366 6.34131H5.1022L3.9453 9.2973L3.82182 8.85099C3.59504 8.31406 2.94692 7.54126 2.18604 7.05477L3.24355 10.6693L4.49395 10.6679Z" fill="#059BBF"/>
<path d="M11.3863 9.25546C11.3907 8.76343 11.0748 8.38813 10.394 8.07815C9.98021 7.87793 9.72803 7.74442 9.73105 7.54125C9.73105 7.36176 9.94461 7.16895 10.4073 7.16895C10.7945 7.163 11.0733 7.24754 11.2913 7.33506L11.3982 7.38404L11.5584 6.44515C11.324 6.35759 10.9576 6.26416 10.4994 6.26416C9.33208 6.26416 8.51039 6.85156 8.50296 7.69402C8.49552 8.31701 9.09039 8.66408 9.53827 8.8717C9.99804 9.08334 10.1523 9.21877 10.1493 9.40863C10.1464 9.69892 9.78294 9.8313 9.44331 9.8313C8.97016 9.8313 8.71948 9.76606 8.3307 9.6041L8.17962 9.5347L8.01367 10.5059C8.28936 10.6264 8.79953 10.7317 9.32912 10.7361C10.5705 10.7361 11.3774 10.1561 11.3863 9.25546Z" fill="#059BBF"/>
<path d="M12.7909 10.0229C12.9258 10.0229 14.1317 10.0244 14.3038 10.0244C14.3394 10.1753 14.4477 10.674 14.4477 10.674H15.5437L14.587 6.34302H13.6749C13.3916 6.34302 13.181 6.42015 13.0564 6.70191L11.3018 10.674H12.5433C12.5432 10.674 12.7449 10.1401 12.7909 10.0229ZM13.6006 7.92409C13.5948 7.93595 13.6986 7.67344 13.7579 7.51028L13.838 7.88402C13.838 7.88402 14.0635 8.91936 14.1109 9.13591H13.1305C13.2284 8.88675 13.6006 7.92409 13.6006 7.92409Z" fill="#059BBF"/>
<path d="M15.9951 2.63818H1.00489C0.449902 2.63818 0 3.08808 0 3.6431V4.68608H17V3.6431C17 3.08808 16.5501 2.63818 15.9951 2.63818Z" fill="#059BBF"/>
<path d="M15.9951 14.3621H1.00489C0.449902 14.3621 0 13.9122 0 13.3572V12.3142H17V13.3572C17 13.9122 16.5501 14.3621 15.9951 14.3621Z" fill="#F79F1A"/>
<path opacity="0.15" d="M0.714432 13.3571V3.64311C0.714432 3.08809 1.16437 2.63818 1.71939 2.63818H1.00486C0.449902 2.63818 0 3.08809 0 3.64311V13.3572C0 13.9122 0.449902 14.3621 1.00489 14.3621H1.71942C1.1644 14.3621 0.714432 13.9122 0.714432 13.3571Z" fill="#202121"/>
</svg>
