<svg width="26" height="26" viewBox="0 0 26 26" fill="none" xmlns="http://www.w3.org/2000/svg">
<path d="M22.4429 24.4897H22.443C22.9312 24.4891 23.3993 24.2949 23.7445 23.9497C24.0898 23.6044 24.284 23.1364 24.2846 22.6482V22.648V17.9473C24.2846 17.8209 24.2344 17.6998 24.145 17.6104C24.0557 17.5211 23.9345 17.4709 23.8082 17.4709C23.6819 17.4709 23.5607 17.5211 23.4714 17.6104C23.382 17.6998 23.3319 17.8209 23.3319 17.9473V22.6478C23.3315 22.8836 23.2377 23.1095 23.0711 23.2762C22.9044 23.4429 22.6784 23.5367 22.4427 23.537H2.41951C2.18379 23.5367 1.95781 23.4429 1.79113 23.2762C1.62447 23.1095 1.53069 22.8836 1.53034 22.6479V7.19654L22.4427 7.19654C22.4427 7.19654 22.4428 7.19654 22.4428 7.19654C22.6785 7.1968 22.9045 7.29055 23.0712 7.45723C23.2379 7.62392 23.3316 7.84993 23.3319 8.08567V12.7866C23.3319 12.913 23.382 13.0341 23.4714 13.1235C23.5607 13.2128 23.6819 13.263 23.8082 13.263C23.9345 13.263 24.0557 13.2128 24.145 13.1235C24.2344 13.0341 24.2846 12.913 24.2846 12.7866V8.08554V8.08539C24.284 7.59716 24.0898 7.1291 23.7445 6.78387C23.3993 6.43865 22.9312 6.24443 22.443 6.24384H22.4429H1.05399C0.927652 6.24384 0.80649 6.29402 0.717157 6.38336C0.627824 6.47269 0.577637 6.59385 0.577637 6.72019L0.577637 22.648L0.577637 22.6481C0.578136 23.1364 0.772318 23.6045 1.11757 23.9498C1.46283 24.295 1.93095 24.4892 2.41921 24.4897H2.41934H22.4429Z" fill="#1A1D26" stroke="#1A1D26" stroke-width="0.25"/>
<path d="M24.3579 18.4219H24.3581C24.6404 18.4216 24.911 18.3093 25.1105 18.1095C25.31 17.9098 25.4221 17.639 25.4221 17.3567V13.3759V13.3758C25.4218 13.0937 25.3096 12.8232 25.1101 12.6236C24.9107 12.4241 24.6402 12.3118 24.3581 12.3114H24.3579H20.2433C19.4329 12.3114 18.6558 12.6333 18.0829 13.2063C17.5099 13.7792 17.188 14.5564 17.188 15.3667C17.188 16.177 17.5099 16.9541 18.0829 17.5271C18.6558 18.1001 19.4329 18.4219 20.2433 18.4219H24.3579ZM20.2433 13.2655H20.2433L24.3577 13.2641C24.3873 13.2642 24.4157 13.2761 24.4366 13.297C24.4576 13.318 24.4693 13.3464 24.4694 13.3761L24.4694 17.3567L24.4694 17.3578C24.4695 17.3726 24.4667 17.3872 24.4612 17.4009C24.4556 17.4146 24.4474 17.427 24.4371 17.4375L24.5259 17.5254L24.4371 17.4375C24.4267 17.448 24.4143 17.4563 24.4007 17.462L24.4489 17.5773L24.4007 17.462C24.3871 17.4677 24.3725 17.4706 24.3578 17.4706H20.2433C19.9671 17.4706 19.6937 17.4163 19.4386 17.3106C19.1835 17.2049 18.9518 17.0501 18.7565 16.8548C18.5613 16.6596 18.4064 16.4278 18.3007 16.1727C18.1951 15.9176 18.1407 15.6442 18.1407 15.3681C18.1407 15.092 18.1951 14.8186 18.3007 14.5635C18.4064 14.3084 18.5613 14.0766 18.7565 13.8813C18.9518 13.6861 19.1835 13.5312 19.4386 13.4256C19.6937 13.3199 19.9671 13.2655 20.2433 13.2655Z" fill="#1A1D26" stroke="#1A1D26" stroke-width="0.25"/>
<path d="M0.826471 6.98877L0.746026 7.0837C0.660001 7.0108 0.602625 6.90975 0.584106 6.79852C0.565587 6.68729 0.587125 6.5731 0.644891 6.47626C0.702656 6.37942 0.792901 6.30621 0.899572 6.26966L0.899581 6.26965L14.3647 1.65677C14.3648 1.65677 14.3648 1.65676 14.3648 1.65676C14.7683 1.51844 15.1991 1.47845 15.6212 1.54011C16.0433 1.60178 16.4446 1.76332 16.7917 2.01132C17.1388 2.25931 17.4217 2.58658 17.6169 2.96593C17.8121 3.34527 17.9138 3.76572 17.9138 4.19233V6.72029C17.9138 6.84662 17.8636 6.96778 17.7743 7.05712C17.6849 7.14645 17.5638 7.19664 17.4374 7.19664C17.3111 7.19664 17.1899 7.14645 17.1006 7.05712C17.0113 6.96778 16.9611 6.84662 16.9611 6.72029V4.19231C16.9611 3.91736 16.8954 3.64638 16.7696 3.4019C16.6438 3.15741 16.4615 2.94649 16.2377 2.78666C16.014 2.62682 15.7553 2.5227 15.4833 2.48293C15.2112 2.44316 14.9336 2.46891 14.6735 2.55802L14.633 2.43977L14.6735 2.55802L1.20845 7.17086C1.20841 7.17087 1.20837 7.17088 1.20834 7.1709L1.20828 7.17092L0.826471 6.98877ZM0.826471 6.98877L0.746027 7.0837M0.826471 6.98877L0.746027 7.0837M1.05378 7.19664C1.05382 7.19664 1.05387 7.19664 1.05391 7.19664L1.05393 7.07164L1.05378 7.19664ZM1.05378 7.19664C0.941067 7.19659 0.83202 7.15657 0.746027 7.0837M1.05378 7.19664L0.746027 7.0837" fill="#1A1D26" stroke="#1A1D26" stroke-width="0.25"/>
<path d="M21.768 15.3668V15.3667C21.768 15.0924 21.6867 14.8243 21.5344 14.5963C21.382 14.3683 21.1655 14.1905 20.9121 14.0856C20.6587 13.9806 20.3799 13.9531 20.1109 14.0066C19.842 14.0601 19.5949 14.1921 19.4009 14.386C19.207 14.5799 19.0749 14.8269 19.0213 15.0959C18.9678 15.3649 18.9952 15.6437 19.1001 15.8971C19.205 16.1505 19.3826 16.3671 19.6106 16.5195C19.8386 16.6719 20.1067 16.7533 20.3809 16.7534H20.381C20.7488 16.7532 21.1014 16.607 21.3614 16.3471C21.6215 16.0871 21.7677 15.7345 21.768 15.3668ZM20.1398 15.0062C20.2112 14.9585 20.2951 14.933 20.381 14.933C20.496 14.933 20.6064 14.9787 20.6878 15.0601C20.7691 15.1414 20.8149 15.2517 20.815 15.3668C20.815 15.4526 20.7896 15.5366 20.742 15.608C20.6943 15.6794 20.6266 15.735 20.5473 15.7679C20.468 15.8008 20.3807 15.8094 20.2965 15.7927C20.2123 15.776 20.1349 15.7347 20.0742 15.674C20.0135 15.6133 19.9721 15.536 19.9553 15.4518C19.9386 15.3676 19.9472 15.2803 19.98 15.201C20.0128 15.1217 20.0685 15.0539 20.1398 15.0062Z" fill="#1A1D26" stroke="#1A1D26" stroke-width="0.25"/>
</svg>
