<svg width="71" height="24" viewBox="0 0 71 24" fill="none" xmlns="http://www.w3.org/2000/svg">
<g clip-path="url(#clip0_863_35837)">
<path d="M30.2141 12.3079C30.2141 15.6392 27.6065 18.094 24.4062 18.094C21.206 18.094 18.5983 15.6392 18.5983 12.3079C18.5983 8.95309 21.206 6.52179 24.4062 6.52179C27.6065 6.52179 30.2141 8.95309 30.2141 12.3079ZM27.6717 12.3079C27.6717 10.2261 26.1603 8.80179 24.4062 8.80179C22.6521 8.80179 21.1408 10.2261 21.1408 12.3079C21.1408 14.3687 22.6521 15.814 24.4062 15.814C26.1603 15.814 27.6717 14.3661 27.6717 12.3079Z" fill="#EA4335"/>
<path d="M42.7436 12.3079C42.7436 15.6392 40.1359 18.094 36.9357 18.094C33.7354 18.094 31.1277 15.6392 31.1277 12.3079C31.1277 8.9557 33.7354 6.52179 36.9357 6.52179C40.1359 6.52179 42.7436 8.95309 42.7436 12.3079ZM40.2011 12.3079C40.2011 10.2261 38.6898 8.80179 36.9357 8.80179C35.1815 8.80179 33.6702 10.2261 33.6702 12.3079C33.6702 14.3687 35.1815 15.814 36.9357 15.814C38.6898 15.814 40.2011 14.3661 40.2011 12.3079Z" fill="#FBBC05"/>
<path d="M54.751 6.87135V17.2592C54.751 21.5322 52.2294 23.2774 49.2485 23.2774C46.4424 23.2774 44.7535 21.4018 44.1166 19.8679L46.3301 18.947C46.7243 19.8887 47.6901 21.0001 49.2458 21.0001C51.154 21.0001 52.3364 19.8235 52.3364 17.6087V16.7766H52.2477C51.6786 17.4783 50.5823 18.0914 49.1989 18.0914C46.304 18.0914 43.652 15.5714 43.652 12.3287C43.652 9.06266 46.304 6.52179 49.1989 6.52179C50.5797 6.52179 51.676 7.13483 52.2477 7.8157H52.3364V6.87396H54.751V6.87135ZM52.5165 12.3287C52.5165 10.2914 51.1566 8.80179 49.426 8.80179C47.6718 8.80179 46.2022 10.2914 46.2022 12.3287C46.2022 14.3453 47.6718 15.814 49.426 15.814C51.1566 15.814 52.5165 14.3453 52.5165 12.3287Z" fill="#4285F4"/>
<path d="M58.7316 0.782593V17.7391H56.2518V0.782593H58.7316Z" fill="#34A853"/>
<path d="M68.395 14.2122L70.3683 15.527C69.7314 16.4687 68.1966 18.0913 65.5445 18.0913C62.2555 18.0913 59.7993 15.5505 59.7993 12.3053C59.7993 8.86438 62.2764 6.51917 65.26 6.51917C68.2644 6.51917 69.734 8.90873 70.2143 10.2L70.478 10.8574L62.7384 14.0609C63.331 15.2218 64.2524 15.8139 65.5445 15.8139C66.8392 15.8139 67.7372 15.1774 68.395 14.2122ZM62.3208 12.1305L67.4944 9.98351C67.2099 9.2609 66.3537 8.75743 65.3461 8.75743C64.054 8.75743 62.2555 9.89743 62.3208 12.1305Z" fill="#EA4335"/>
<path d="M9.21175 10.8026V8.34784H17.489C17.5699 8.77566 17.6117 9.28175 17.6117 9.82958C17.6117 11.6713 17.1079 13.9487 15.4843 15.5713C13.9051 17.2148 11.8873 18.0913 9.21436 18.0913C4.26002 18.0913 0.0939941 14.0583 0.0939941 9.10697C0.0939941 4.15566 4.26002 0.12262 9.21436 0.12262C11.9552 0.12262 13.9077 1.1974 15.3747 2.59827L13.6414 4.33045C12.5895 3.34436 11.1643 2.5774 9.21175 2.5774C5.59388 2.5774 2.76433 5.49131 2.76433 9.10697C2.76433 12.7226 5.59388 15.6365 9.21175 15.6365C11.5584 15.6365 12.8949 14.6948 13.7511 13.8391C14.4454 13.1452 14.9022 12.1539 15.0823 10.8L9.21175 10.8026Z" fill="#4285F4"/>
</g>
<defs>
<clipPath id="clip0_863_35837">
<rect width="71" height="24" fill="white"/>
</clipPath>
</defs>
</svg>
