<svg width="24" height="24" viewBox="0 0 24 24" fill="none" xmlns="http://www.w3.org/2000/svg">
<path d="M17.5002 6.5H17.5102M7.00024 2H17.0002C19.7617 2 22.0002 4.23858 22.0002 7V17C22.0002 19.7614 19.7617 22 17.0002 22H7.00024C4.23882 22 2.00024 19.7614 2.00024 17V7C2.00024 4.23858 4.23882 2 7.00024 2ZM16.0002 11.37C16.1237 12.2022 15.9815 13.0522 15.594 13.799C15.2065 14.5458 14.5934 15.1514 13.8419 15.5297C13.0904 15.9079 12.2387 16.0396 11.408 15.9059C10.5774 15.7723 9.81 15.3801 9.21508 14.7852C8.62016 14.1902 8.22798 13.4229 8.09431 12.5922C7.96065 11.7616 8.09231 10.9099 8.47057 10.1584C8.84883 9.40685 9.45443 8.79374 10.2012 8.40624C10.948 8.01874 11.798 7.87659 12.6302 8C13.4792 8.12588 14.2651 8.52146 14.8719 9.12831C15.4788 9.73515 15.8744 10.5211 16.0002 11.37Z" stroke="#4E0E28" stroke-width="1.5" stroke-linecap="round" stroke-linejoin="round"/>
</svg>
