<svg width="24" height="24" viewBox="0 0 24 24" fill="none" xmlns="http://www.w3.org/2000/svg">
<path d="M13.9998 2H5.99976C5.46932 2 4.96061 2.21071 4.58554 2.58579C4.21047 2.96086 3.99976 3.46957 3.99976 4V20C3.99976 20.5304 4.21047 21.0391 4.58554 21.4142C4.96061 21.7893 5.46932 22 5.99976 22H17.9998C18.5302 22 19.0389 21.7893 19.414 21.4142C19.789 21.0391 19.9998 20.5304 19.9998 20V8M13.9998 2L19.9998 8M13.9998 2V8H19.9998M15.9998 13H7.99976M15.9998 17H7.99976M9.99976 9H7.99976" stroke="#4E0E28" stroke-width="1.5" stroke-linecap="round" stroke-linejoin="round"/>
</svg>
