<svg width="25" height="22" viewBox="0 0 25 22" fill="none" xmlns="http://www.w3.org/2000/svg">
<path d="M23.6379 17.5569H1.36215C0.979306 17.5569 0.668925 17.8673 0.668925 18.2501C0.668925 19.9092 2.01383 21.2541 3.67291 21.2541H21.3271C22.9861 21.2541 24.3311 19.9092 24.3311 18.2501C24.3311 17.8673 24.0207 17.5569 23.6379 17.5569Z" stroke="#9A9FAE" stroke-width="1.3"/>
<path d="M14.3488 2.8867V2.51753C14.3488 1.49659 13.5211 0.668925 12.5001 0.668925C11.4792 0.668925 10.6515 1.49659 10.6515 2.51753V2.8867C11.258 2.79542 11.8755 2.74861 12.5001 2.74861C13.1248 2.74861 13.7423 2.79542 14.3488 2.8867Z" stroke="#9A9FAE" stroke-width="1.3"/>
<path d="M20.1797 8.24994C18.1284 6.19864 15.4011 5.06895 12.5002 5.06895C9.59919 5.06895 6.87189 6.19864 4.82059 8.24994C2.93357 10.137 1.82723 12.5962 1.66201 15.2363H23.3383C23.1731 12.5962 22.0668 10.137 20.1797 8.24994Z" stroke="#9A9FAE" stroke-width="1.3"/>
</svg>
