<svg width="115" height="115" viewBox="0 0 115 115" fill="none" xmlns="http://www.w3.org/2000/svg">
<path d="M57.4982 105.417C83.9619 105.417 105.415 83.9638 105.415 57.5002C105.415 31.0365 83.9619 9.5835 57.4982 9.5835C31.0346 9.5835 9.58154 31.0365 9.58154 57.5002C9.58154 83.9638 31.0346 105.417 57.4982 105.417Z" stroke="#9A9FAE" stroke-width="3" stroke-linecap="round" stroke-linejoin="round"/>
<path d="M79 82V76.6667C79 73.8377 77.8674 71.1246 75.8514 69.1242C73.8354 67.1238 71.1011 66 68.25 66H46.75C43.8989 66 41.1646 67.1238 39.1486 69.1242C37.1326 71.1246 36 73.8377 36 76.6667V82" stroke="#9A9FAE" stroke-width="3" stroke-linecap="round" stroke-linejoin="round"/>
<path d="M57.5 55.3333C63.4371 55.3333 68.25 50.5577 68.25 44.6667C68.25 38.7756 63.4371 34 57.5 34C51.5629 34 46.75 38.7756 46.75 44.6667C46.75 50.5577 51.5629 55.3333 57.5 55.3333Z" stroke="#9A9FAE" stroke-width="3" stroke-linecap="round" stroke-linejoin="round"/>
</svg>
