<svg width="24" height="27" viewBox="0 0 24 27" fill="none" xmlns="http://www.w3.org/2000/svg">
<path d="M23.8644 12.6008L23.8644 12.6018C23.8697 12.7101 23.8723 12.8185 23.8723 12.9269C23.8722 16.6171 20.8805 19.6085 17.1903 19.6083H13.3194L12.6028 25.3392C12.5128 26.0591 11.9009 26.5994 11.1753 26.5994H6.86154H6.86144V26.4717C6.78902 26.4717 6.7167 26.4658 6.64527 26.4539C5.93114 26.3349 5.44871 25.6596 5.56766 24.9455L23.8644 12.6008ZM23.8644 12.6008C23.6942 9.59463 21.5425 7.07471 18.6097 6.42967C18.4086 2.90269 15.4913 0.133453 11.9472 0.12766H11.947M23.8644 12.6008L11.947 0.12766M11.947 0.12766H3.98731H11.947ZM1.56704 22.9762H5.88095H1.56704ZM1.56704 22.9762C1.44273 22.9766 1.32427 22.9234 1.24196 22.8302L1.56704 22.9762ZM5.76825 22.8485H1.56704H1.56659C1.47907 22.8488 1.39562 22.8114 1.33764 22.7457L1.33685 22.7448C1.27787 22.6793 1.25 22.5915 1.26037 22.504L1.26042 22.5036L3.68106 1.53056C3.69907 1.37491 3.8307 1.25731 3.98743 1.25686H11.9469C14.8058 1.26148 17.1856 3.43261 17.4666 6.26156C17.3178 6.25129 17.1671 6.24481 17.0168 6.24481H9.23009C8.49945 6.24487 7.88498 6.79258 7.80119 7.51834L7.80119 7.51835L7.38304 11.1423L7.38304 11.1423C7.34733 11.4522 7.5695 11.7322 7.87931 11.7679C8.18912 11.8036 8.46916 11.5815 8.50488 11.2717C8.50488 11.2716 8.50488 11.2716 8.50488 11.2716L8.92302 7.64773L5.76825 22.8485ZM5.76825 22.8485L6.92178 13.6221C7.01174 12.9022 7.62369 12.3619 8.34922 12.362H11.9468C14.7915 12.357 17.1657 10.2064 17.4631 7.3908C17.3153 7.3796 17.1661 7.37401 17.0155 7.37401H9.23015M5.76825 22.8485L9.23015 7.37401M9.23015 7.37401C9.07315 7.37409 8.9411 7.49176 8.92303 7.64768L9.23015 7.37401ZM1.56718 23.9777H5.60035L1.56704 23.8501V23.9777H1.56718ZM11.1753 25.4702H6.8615C6.69071 25.4701 6.5523 25.3316 6.55238 25.1607V25.1607C6.55238 25.1437 6.55377 25.1268 6.55654 25.1102L6.55655 25.1102L6.82074 23.5228L6.82212 23.5212L6.82688 23.4831L8.04201 13.7621C8.04201 13.7621 8.04201 13.7621 8.04201 13.7621C8.06139 13.6072 8.19307 13.491 8.34913 13.4912H8.34922H11.947H11.9471C15.3415 13.4867 18.1857 10.9427 18.581 7.58711C20.9134 8.19502 22.5969 10.2393 22.7365 12.6565C22.8155 14.1754 22.2631 15.6593 21.21 16.7568L21.2095 16.7565C20.1653 17.861 18.7107 18.4845 17.1907 18.4791H17.1903H12.8209H12.8208C12.5361 18.4792 12.296 18.6912 12.2607 18.9737L11.4826 25.1992C11.4632 25.3541 11.3315 25.4703 11.1754 25.4702H11.1753ZM6.82525 23.4765C6.82525 23.4752 6.82545 23.477 6.82525 23.481V23.481V23.481V23.481V23.481V23.4809V23.4809V23.4809V23.4809V23.4809V23.4808V23.4808V23.4808V23.4808V23.4808V23.4808V23.4807V23.4807V23.4807V23.4807V23.4807V23.4807V23.4806V23.4806V23.4806V23.4806V23.4806V23.4806V23.4805V23.4805V23.4805V23.4805V23.4805V23.4805V23.4804V23.4804V23.4804V23.4804V23.4804V23.4803V23.4803V23.4803V23.4803V23.4803V23.4803V23.4802V23.4802V23.4802V23.4802V23.4802V23.4802V23.4801V23.4801V23.4801V23.4801V23.4801V23.4801V23.48V23.48V23.48V23.48V23.48V23.48V23.4799V23.4799V23.4799V23.4799V23.4799V23.4799V23.4798V23.4798V23.4798V23.4798V23.4798V23.4798V23.4797V23.4797V23.4797V23.4797V23.4797V23.4796V23.4796V23.4796V23.4796V23.4796V23.4796V23.4795V23.4795V23.4795V23.4795V23.4795V23.4795V23.4794V23.4794V23.4794V23.4794V23.4794V23.4794V23.4793V23.4793V23.4793V23.4793V23.4793V23.4793V23.4792V23.4792V23.4792V23.4792V23.4792V23.4792V23.4791V23.4791V23.4791V23.4791V23.4791V23.4791V23.479V23.479V23.479V23.479V23.479V23.479V23.4789V23.4789V23.4789V23.4789V23.4789V23.4789V23.4788V23.4788V23.4788V23.4788V23.4788V23.4788V23.4787V23.4787V23.4787V23.4787V23.4787V23.4787V23.4786V23.4786V23.4786V23.4786V23.4786V23.4786V23.4785V23.4785V23.4785V23.4785V23.4785V23.4785V23.4784V23.4784V23.4784V23.4784V23.4784V23.4784V23.4783V23.4783V23.4783V23.4783V23.4783V23.4783V23.4782V23.4782V23.4782V23.4782V23.4782V23.4782V23.4782V23.4781V23.4781V23.4781V23.4781V23.4781V23.4781V23.478V23.478V23.478V23.478V23.478V23.478V23.4779V23.4779V23.4779V23.4779V23.4779V23.4779V23.4778V23.4778V23.4778V23.4778V23.4778V23.4778V23.4777V23.4777V23.4777V23.4777V23.4777V23.4777V23.4776V23.4776V23.4776V23.4776V23.4776V23.4776V23.4776V23.4775V23.4775V23.4775V23.4775V23.4775V23.4775V23.4774V23.4774V23.4774V23.4774V23.4774V23.4774V23.4773V23.4773V23.4773V23.4773V23.4773V23.4773V23.4773V23.4772V23.4772V23.4772V23.4772V23.4772V23.4772V23.4771V23.4771V23.4771V23.4771V23.4771V23.4771V23.477V23.477V23.477V23.477V23.477V23.477V23.477V23.4769V23.4769V23.4769V23.4769V23.4769V23.4769V23.4768V23.4768V23.4768V23.4768V23.4768V23.4768V23.4767V23.4767V23.4767V23.4767V23.4767V23.4767V23.4767V23.4766V23.4766V23.4766V23.4766V23.4766V23.4766V23.4765V23.4765V23.4765V23.4765V23.4765Z" fill="#1A1D26" stroke="#1A1D26" stroke-width="0.25"/>
</svg>
