<svg width="24" height="26" viewBox="0 0 24 26" fill="none" xmlns="http://www.w3.org/2000/svg">
<path d="M0.764706 5.65882H3.25708M3.25708 5.65882H23.1961M3.25708 5.65882V22.7882C3.25708 23.4372 3.51967 24.0597 3.98708 24.5186C4.45449 24.9775 5.08844 25.2353 5.74946 25.2353H18.2113C18.8723 25.2353 19.5063 24.9775 19.9737 24.5186C20.4411 24.0597 20.7037 23.4372 20.7037 22.7882V5.65882H3.25708ZM6.99564 5.65882V3.21176C6.99564 2.56276 7.25823 1.94035 7.72564 1.48143C8.19305 1.02252 8.827 0.764706 9.48802 0.764706H14.4728C15.1338 0.764706 15.7677 1.02252 16.2351 1.48143C16.7026 1.94035 16.9651 2.56276 16.9651 3.21176V5.65882M9.48802 11.7765V19.1176M14.4728 11.7765V19.1176" stroke="#4E0E28" stroke-width="1.5" stroke-linecap="round" stroke-linejoin="round"/>
</svg>
