<svg width="22" height="20" viewBox="0 0 22 20" fill="none" xmlns="http://www.w3.org/2000/svg">
<path d="M18.8968 19.8718H18.897C19.3212 19.8713 19.7278 19.7026 20.0278 19.4026C20.3277 19.1027 20.4965 18.696 20.497 18.2718V18.2717V14.2412C20.497 14.1273 20.4517 14.0181 20.3712 13.9375C20.2907 13.857 20.1814 13.8117 20.0675 13.8117C19.9536 13.8117 19.8444 13.857 19.7638 13.9375C19.6833 14.0181 19.6381 14.1273 19.6381 14.2412V18.2715C19.6378 18.4681 19.5596 18.6565 19.4206 18.7955C19.2816 18.9344 19.0932 19.0126 18.8967 19.0129H1.72852C1.53197 19.0126 1.34355 18.9344 1.20457 18.7955C1.06561 18.6565 0.987419 18.4681 0.987125 18.2716V5.04437L18.8967 5.04437C18.8967 5.04437 18.8968 5.04437 18.8968 5.04437C19.0933 5.04459 19.2817 5.12276 19.4207 5.26173C19.5597 5.40071 19.6379 5.58916 19.6381 5.78571V9.81637C19.6381 9.93027 19.6833 10.0395 19.7638 10.12C19.8444 10.2006 19.9536 10.2458 20.0675 10.2458C20.1814 10.2458 20.2907 10.2006 20.3712 10.12C20.4517 10.0395 20.497 9.93027 20.497 9.81637V5.78558V5.78543C20.4965 5.36124 20.3277 4.95458 20.0278 4.65464C19.7278 4.3547 19.3212 4.18597 18.897 4.18545H18.8968H0.557665C0.443765 4.18545 0.334531 4.23069 0.253991 4.31123C0.173452 4.39177 0.128205 4.50101 0.128205 4.61491L0.128205 18.2717L0.128205 18.2718C0.128639 18.696 0.297349 19.1027 0.597314 19.4027C0.89728 19.7027 1.304 19.8714 1.72821 19.8718H1.72834H18.8968Z" fill="#9A9FAE" stroke="#9A9FAE" stroke-width="0.25"/>
<path d="M20.5382 14.6691H20.5383C20.7859 14.6688 21.0233 14.5703 21.1983 14.3951C21.3733 14.2199 21.4716 13.9824 21.4716 13.7347V10.3215V10.3214C21.4713 10.0739 21.3729 9.83667 21.198 9.66165C21.023 9.48663 20.7858 9.38814 20.5383 9.38777H20.5382H17.0102C16.3098 9.38777 15.6381 9.66598 15.1429 10.1612C14.6477 10.6564 14.3695 11.3281 14.3695 12.0284C14.3695 12.7288 14.6477 13.4005 15.1429 13.8957C15.6381 14.3909 16.3098 14.6691 17.0102 14.6691H20.5382ZM17.0102 10.2479H17.0102L20.5379 10.2467C20.5577 10.2468 20.5767 10.2547 20.5907 10.2687C20.6048 10.2828 20.6127 10.3019 20.6127 10.3217L20.6127 13.7347L20.6127 13.7359C20.6128 13.7458 20.6109 13.7556 20.6072 13.7647C20.6035 13.7739 20.598 13.7822 20.5911 13.7892C20.5841 13.7962 20.5758 13.8018 20.5667 13.8056C20.5576 13.8094 20.5478 13.8114 20.538 13.8114H17.0102C16.7762 13.8114 16.5445 13.7653 16.3283 13.6758C16.1121 13.5862 15.9157 13.455 15.7503 13.2895C15.5848 13.1241 15.4536 12.9277 15.364 12.7115C15.2745 12.4953 15.2284 12.2636 15.2284 12.0296C15.2284 11.7957 15.2745 11.564 15.364 11.3478C15.4536 11.1316 15.5848 10.9352 15.7503 10.7698C15.9157 10.6043 16.1121 10.4731 16.3283 10.3835C16.5445 10.294 16.7762 10.2479 17.0102 10.2479Z" fill="#9A9FAE" stroke="#9A9FAE" stroke-width="0.25"/>
<path d="M0.418449 4.20867L0.418459 4.20867L11.9637 0.2535C11.9637 0.253497 11.9637 0.253495 11.9637 0.253492C12.3129 0.133807 12.6856 0.0992041 13.0509 0.152561C13.4161 0.205919 13.7633 0.345698 14.0637 0.560277C14.364 0.774856 14.6088 1.05803 14.7777 1.38627C14.9465 1.71449 15.0346 2.07829 15.0346 2.44741C15.0346 2.44742 15.0346 2.44742 15.0346 2.44743V4.61494C15.0346 4.72884 14.9893 4.83807 14.9088 4.91861C14.8283 4.99915 14.719 5.0444 14.6051 5.0444C14.4912 5.0444 14.382 4.99915 14.3014 4.91861C14.2209 4.83807 14.1757 4.72884 14.1757 4.61494V2.44741C14.1756 2.21501 14.1202 1.98597 14.0138 1.77932C13.9075 1.57267 13.7533 1.39439 13.5642 1.25929C13.3751 1.12419 13.1565 1.03618 12.9265 1.00256C12.6966 0.968952 12.4619 0.990713 12.2421 1.06604L12.2005 0.944752L12.2421 1.06604L0.696944 5.02115C0.696925 5.02116 0.696906 5.02117 0.696887 5.02117L0.696772 5.02121L0.418449 4.20867ZM0.418449 4.20867C0.322279 4.24162 0.240917 4.30763 0.188839 4.39493C0.13676 4.48224 0.117341 4.58519 0.134037 4.68547C0.150733 4.78575 0.202461 4.87686 0.280019 4.94258C0.357543 5.00827 0.455849 5.04435 0.557464 5.0444M0.418449 4.20867L0.557464 5.0444M0.557464 5.0444C0.557508 5.0444 0.557551 5.0444 0.557594 5.0444L0.557615 4.91619L0.557464 5.0444Z" fill="#9A9FAE" stroke="#9A9FAE" stroke-width="0.25"/>
<path d="M18.3385 12.0284V12.0283C18.3385 11.789 18.2675 11.5551 18.1346 11.3561C18.0016 11.1571 17.8127 11.002 17.5916 10.9104C17.3705 10.8189 17.1273 10.7949 16.8925 10.8415C16.6578 10.8882 16.4422 11.0034 16.273 11.1726C16.1038 11.3418 15.9885 11.5574 15.9418 11.7921C15.895 12.0268 15.9189 12.27 16.0105 12.4911C16.102 12.7122 16.257 12.9012 16.456 13.0342C16.6549 13.1672 16.8888 13.2383 17.1281 13.2383H17.1282C17.4491 13.2382 17.7568 13.1106 17.9837 12.8838C18.2106 12.6569 18.3382 12.3493 18.3385 12.0284ZM16.9331 11.7367C16.9908 11.6981 17.0587 11.6775 17.1282 11.6775C17.2213 11.6775 17.3105 11.7145 17.3764 11.7803C17.4422 11.8461 17.4792 11.9353 17.4793 12.0284C17.4793 12.0979 17.4588 12.1658 17.4202 12.2235C17.3817 12.2813 17.3268 12.3263 17.2627 12.3529C17.1985 12.3795 17.1279 12.3865 17.0598 12.373C16.9917 12.3595 16.9291 12.3261 16.88 12.277C16.8309 12.2279 16.7974 12.1653 16.7839 12.0972C16.7703 12.0291 16.7772 11.9585 16.8038 11.8943C16.8304 11.8302 16.8754 11.7753 16.9331 11.7367Z" fill="#9A9FAE" stroke="#9A9FAE" stroke-width="0.25"/>
</svg>
