<svg width="32" height="32" viewBox="0 0 32 32" fill="none" xmlns="http://www.w3.org/2000/svg">
<g clip-path="url(#clip0_0_11)">
<path d="M4.26654 22.0827L1.89529 19.7928C1.67431 19.5811 1.49927 19.3263 1.38139 19.0448C1.26351 18.7632 1.20538 18.4611 1.21073 18.1577C1.21608 17.8543 1.28479 17.5565 1.41245 17.2831C1.54012 17.0098 1.72393 16.767 1.95211 16.5704C4.52803 14.4318 7.57963 12.9351 10.8617 12.2003C13.8904 11.4927 17.0484 11.4628 20.1116 12.1127C23.4432 12.7893 26.581 14.2382 29.2707 16.3423C29.5081 16.5339 29.7037 16.7722 29.8451 17.042C29.9865 17.3118 30.0706 17.6072 30.0921 17.9093C30.1135 18.2115 30.0719 18.5138 29.9698 18.797C29.8676 19.0802 29.7073 19.3381 29.4989 19.5543L27.2452 21.888C26.8844 22.2692 26.3952 22.504 25.8686 22.5487C25.3421 22.5934 24.8141 22.4449 24.3833 22.131C23.5293 21.4967 22.6078 20.9598 21.6364 20.5306C21.2524 20.3621 20.923 20.0878 20.6874 19.7403C20.4517 19.3929 20.3196 18.9867 20.3066 18.57L20.2568 16.6127C17.2086 15.8091 14.0129 15.8394 11.007 16.7004L11.0568 18.6577C11.0651 19.0744 10.9536 19.4829 10.7358 19.8347C10.5179 20.1865 10.2026 20.4668 9.82741 20.6426C8.87825 21.0899 7.98449 21.644 7.16319 22.2942C6.7441 22.6198 6.21744 22.7781 5.68336 22.7391C5.14928 22.7001 4.64504 22.4665 4.26654 22.0827Z" stroke="white" stroke-width="2" stroke-linecap="round" stroke-linejoin="round"/>
</g>
<defs>
<clipPath id="clip0_0_11">
<rect width="32" height="32" fill="white"/>
</clipPath>
</defs>
</svg>
